<?xml version="1.0" encoding="UTF-8"?>
<svg version="1.1" xmlns="http://www.w3.org/2000/svg" width="486" height="426">
<path d="M0 0 C1.10490117 -0.00382555 2.20980234 -0.00765109 3.34818536 -0.01159257 C7.0163784 -0.02183499 10.68441233 -0.01794711 14.35261536 -0.01396179 C16.99672455 -0.01831318 19.64082245 -0.02343409 22.28492737 -0.02944946 C28.70191194 -0.04214793 35.11885457 -0.04399616 41.53584959 -0.0416492 C46.75758072 -0.03986005 51.9792992 -0.04162844 57.20102882 -0.04587364 C57.94661755 -0.04646883 58.69220628 -0.04706402 59.4603886 -0.04767724 C60.97549977 -0.04888911 62.49061093 -0.05010325 64.00572208 -0.05131962 C78.19052633 -0.06217695 92.37530676 -0.06004153 106.56011233 -0.05393478 C119.50358067 -0.04877 132.44697364 -0.06001267 145.39042708 -0.07903299 C158.71487239 -0.09846139 172.03928214 -0.10665848 185.3637417 -0.10290974 C192.83065637 -0.10100491 200.29750698 -0.10341454 207.76441002 -0.11762428 C214.12290108 -0.12960322 220.48128865 -0.13087086 226.83978131 -0.11883412 C230.0763988 -0.11299001 233.3127909 -0.11338203 236.54940224 -0.12383652 C253.69157336 -0.17518206 270.02625728 0.38331366 286.32063293 6.32319641 C287.14418274 6.61847229 287.96773254 6.91374817 288.8162384 7.2179718 C301.82756384 12.09007044 314.03350436 18.95631178 324.38313293 28.26069641 C325.36797668 29.11534485 326.35282043 29.96999329 327.36750793 30.85054016 C349.59554956 50.39666375 365.38605546 79.82046211 367.5547893 109.61928844 C367.83151763 115.81755936 367.80290815 122.01760053 367.78718567 128.22065735 C367.79290159 130.27921415 367.79987052 132.33776778 367.8079834 134.39631653 C367.82579724 139.94203602 367.82476846 145.48759627 367.81904101 151.03333569 C367.8159313 155.68479919 367.82206147 160.33623288 367.82807976 164.98769212 C367.84208544 175.97357598 367.84059742 186.95938201 367.82917786 197.94526672 C367.81770712 209.22878398 367.83176397 220.51206325 367.85857433 231.79554915 C367.88082357 241.52860477 367.88734783 251.26158618 367.88149792 260.99466538 C367.87814834 266.78770289 367.8804088 272.58058802 367.89774895 278.37360382 C367.91336331 283.82723345 367.90910396 289.28051428 367.8904438 294.73413086 C367.88679731 296.71886383 367.88974898 298.70362349 367.90032959 300.6883316 C368.0527297 331.67666184 359.42865942 360.89342145 338.38313293 384.26069641 C337.69992981 385.08569641 337.01672668 385.91069641 336.31282043 386.76069641 C317.69243029 408.74787296 288.02039502 423.66914034 259.38313293 426.26069641 C255.67760599 426.403801 251.97545564 426.40853929 248.26747131 426.40786743 C247.16810454 426.41154412 246.06873777 426.41522081 244.93605685 426.41900891 C241.26248627 426.42999717 237.58894402 426.43388137 233.9153595 426.43769836 C231.27671138 426.44396682 228.63806621 426.45060185 225.99942017 426.45761108 C218.08861371 426.47731365 210.17780609 426.48743458 202.26698124 426.49633887 C198.53184053 426.50073266 194.7967012 426.50609668 191.06156158 426.51132774 C178.6278068 426.52833512 166.19405286 426.5428256 153.76028824 426.55007648 C150.53837839 426.55198605 147.31646854 426.55390643 144.09455872 426.55586243 C142.89352914 426.55658804 142.89352914 426.55658804 141.66823635 426.55732831 C128.72005956 426.56561493 115.77197556 426.59093086 102.82383922 426.6234431 C89.49838132 426.65662703 76.17297039 426.6745355 62.847471 426.67772073 C55.37869109 426.67987556 47.91004642 426.68847215 40.44130707 426.7141819 C34.07584027 426.73604458 27.71054157 426.74386387 21.34504148 426.73421512 C18.10598301 426.72971463 14.86733744 426.73355217 11.62831306 426.75097656 C-23.97018842 426.93161149 -53.74963329 418.18969377 -80.61686707 394.26069641 C-81.47924988 393.50014954 -82.34163269 392.73960266 -83.23014832 391.95600891 C-103.72111835 372.66610817 -117.91003986 343.0628756 -118.80539894 314.8476181 C-118.90888806 309.49301934 -118.89905349 304.13852944 -118.89152527 298.78315735 C-118.89587916 296.72855444 -118.90106456 294.67395316 -118.90701294 292.61935425 C-118.92034257 287.06749625 -118.92098826 281.51570658 -118.91844964 275.96383572 C-118.91737563 271.31468707 -118.92227435 266.66555201 -118.92705506 262.0164063 C-118.93812979 251.0393949 -118.93859938 240.06241772 -118.93254089 229.08540344 C-118.92650488 217.79511472 -118.9388074 206.50495074 -118.96011096 195.21468329 C-118.97777762 185.49112145 -118.98372028 175.76759913 -118.98047322 166.04402184 C-118.97866799 160.24995799 -118.98122005 154.45598309 -118.99518776 148.6619339 C-119.00784383 143.20842511 -119.005749 137.75510944 -118.99277687 132.30160332 C-118.99042824 130.31196716 -118.99308349 128.32231708 -119.00139999 126.33269691 C-119.05903123 111.46069513 -117.85949532 97.43050559 -112.92936707 83.26069641 C-112.67445496 82.51851868 -112.41954285 81.77634094 -112.15690613 81.01167297 C-101.03959381 49.75834455 -78.23253537 24.82623146 -48.30436707 10.51069641 C-33.05083957 3.49951003 -16.77198964 -0.06289014 0 0 Z " fill="#FEFEFE" transform="translate(118.61686706542969,-0.2606964111328125)"/>
<path d="M0 0 C0.7022168 -0.00199402 1.40443359 -0.00398804 2.12792969 -0.00604248 C14.97439849 -0.00190186 27.9658227 0.77311266 40.375 4.3125 C41.60605469 4.66183594 42.83710938 5.01117188 44.10546875 5.37109375 C48.25260212 6.62058176 52.35469018 7.93098463 56.4375 9.375 C57.24888428 9.65263184 58.06026855 9.93026367 58.89624023 10.21630859 C65.46092133 12.51469946 71.60585129 15.24694285 77.75 18.5 C78.66080322 18.98154541 79.57160645 19.46309082 80.51000977 19.95922852 C102.68842859 31.91743066 121.51665993 49.17258841 136.4375 69.375 C137.08187012 70.24487549 137.08187012 70.24487549 137.73925781 71.13232422 C155.68560213 95.73083543 166.94933032 126.8338846 167.4375 157.375 C167.48197266 158.73069092 167.48197266 158.73069092 167.52734375 160.11376953 C168.17134619 180.40950659 166.27795672 199.64739246 159.62890625 218.91015625 C158.90951443 221.00228919 158.23592855 223.11208963 157.65234375 225.24609375 C155.60521779 232.49847466 152.20074039 238.90563504 148.625 245.5 C148.12734131 246.41861816 147.62968262 247.33723633 147.11694336 248.28369141 C126.96651254 284.60068495 95.04606723 310.90758387 56.4375 325.375 C55.47070312 325.75527344 54.50390625 326.13554687 53.5078125 326.52734375 C36.44622539 333.07998228 18.44492827 334.78501203 0.3125 334.6875 C-0.75484375 334.68476578 -0.75484375 334.68476578 -1.84375 334.68197632 C-19.95127907 334.60442315 -38.60393951 333.29341771 -55.5625 326.375 C-56.5525 324.89 -56.5525 324.89 -57.5625 323.375 C-56.81406354 320.82242548 -55.97466977 318.5619852 -54.92578125 316.1328125 C-54.61926636 315.39313736 -54.31275146 314.65346222 -53.99694824 313.89137268 C-52.96954347 311.42181267 -51.92249161 308.96109994 -50.875 306.5 C-50.15146791 304.77366233 -49.42907586 303.04684646 -48.70776367 301.31958008 C-47.16102786 297.62344556 -45.60532309 293.93125834 -44.04296875 290.24169922 C-41.92377441 285.23583841 -39.82166733 280.2230055 -37.72492981 275.20770264 C-35.613053 270.15730017 -33.49433285 265.10977718 -31.375 260.0625 C-30.97044586 259.09773743 -30.56589172 258.13297485 -30.14907837 257.13897705 C-28.98460838 254.36580927 -27.81531881 251.59472434 -26.64453125 248.82421875 C-26.30546753 248.01521622 -25.96640381 247.20621368 -25.61706543 246.37269592 C-23.15001003 240.55475837 -20.40345183 235.05690366 -17.5625 229.375 C8.5075 229.375 34.5775 229.375 61.4375 229.375 C62.4275 226.075 63.4175 222.775 64.4375 219.375 C65.56320595 216.53505828 66.71105277 213.74496507 67.94140625 210.953125 C68.26535873 210.20464294 68.58931122 209.45616089 68.92308044 208.68499756 C69.94347839 206.32934586 70.9712126 203.9769983 72 201.625 C73.03125203 199.25826331 74.06084228 196.89083225 75.08763123 194.52215576 C75.72253963 193.05839719 76.36012653 191.59579639 77.00086975 190.13458252 C77.29134689 189.4665863 77.58182404 188.79859009 77.88110352 188.11035156 C78.13408707 187.53206604 78.38707062 186.95378052 78.64772034 186.35797119 C79.69071442 183.73923168 80.54611718 181.04914846 81.4375 178.375 C56.3575 178.045 31.2775 177.715 5.4375 177.375 C6.23633084 173.38084578 7.12435429 170.42683358 8.6875 166.7421875 C9.1309375 165.68902344 9.574375 164.63585937 10.03125 163.55078125 C10.4953125 162.46152344 10.959375 161.37226563 11.4375 160.25 C12.3550181 158.08108915 13.27172283 155.91183399 14.1875 153.7421875 C14.79851562 152.30528564 14.79851562 152.30528564 15.421875 150.83935547 C16.1616239 149.04439744 16.82356981 147.21679056 17.4375 145.375 C-0.7125 145.375 -18.8625 145.375 -37.5625 145.375 C-41.71920302 154.28222077 -45.82532072 163.13215726 -49.64453125 172.17578125 C-50.09619156 173.2389859 -50.54785187 174.30219055 -51.01319885 175.39761353 C-51.97346302 177.65878641 -52.93256503 179.92045314 -53.89056396 182.18258667 C-55.92428183 186.98441355 -57.96422755 191.78358697 -60.00372314 196.58296204 C-61.03978366 199.02122218 -62.07555057 201.4596071 -63.11102295 203.89811707 C-67.70241939 214.71038561 -72.31102719 225.51519518 -76.9375 236.3125 C-77.29485229 237.14657379 -77.65220459 237.98064758 -78.02038574 238.83999634 C-83.67767007 252.03759949 -89.38739084 265.21213288 -95.125 278.375 C-95.49751892 279.22971893 -95.87003784 280.08443787 -96.25384521 280.96505737 C-97.29469407 283.35207192 -98.33652005 285.73865645 -99.37890625 288.125 C-99.68837692 288.83423111 -99.9978476 289.54346222 -100.31669617 290.27418518 C-102.44481185 295.1396237 -102.44481185 295.1396237 -103.5625 297.375 C-108.07727938 296.5099763 -110.63497884 293.9013015 -113.875 290.8125 C-114.74874268 289.98951416 -114.74874268 289.98951416 -115.64013672 289.14990234 C-119.89670216 285.10039376 -123.86958243 280.94872286 -127.5625 276.375 C-128.77099609 274.94027344 -128.77099609 274.94027344 -130.00390625 273.4765625 C-151.72799266 247.23531413 -166.61257989 213.88838799 -166.765625 179.55859375 C-166.77132507 178.5438649 -166.77702515 177.52913605 -166.78289795 176.48365784 C-166.79229601 174.34482854 -166.79886112 172.20598511 -166.80273438 170.06713867 C-166.81239971 166.84592465 -166.84345718 163.6253606 -166.875 160.40429688 C-166.9561135 144.87840872 -165.54071008 130.83526595 -160.4375 116.0625 C-160.1381958 115.1856958 -159.8388916 114.3088916 -159.53051758 113.40551758 C-144.73444012 71.35171868 -115.19737718 37.67332152 -75.5625 17.375 C-74.94842285 17.05837402 -74.3343457 16.74174805 -73.70166016 16.41552734 C-50.32639998 4.52611878 -26.11251225 0.01943324 0 0 Z " fill="#010101" transform="translate(248.5625,41.625)"/>
<path d="M0 0 C1.31366496 -0.00233999 1.31366496 -0.00233999 2.65386862 -0.00472724 C5.57008003 -0.00869593 8.48623881 -0.00556369 11.40245056 -0.00241089 C13.50062083 -0.00376675 15.59879087 -0.00554773 17.69696045 -0.00772095 C23.38273175 -0.01227296 29.06848487 -0.01051496 34.75425649 -0.00734186 C40.7087199 -0.00480708 46.66318178 -0.00715889 52.61764526 -0.00872803 C62.61525247 -0.01054631 72.61285229 -0.0081522 82.61045837 -0.00338745 C94.16550541 0.002056 105.72053481 0.00029053 117.27558142 -0.00521386 C127.20188614 -0.00975292 137.12818556 -0.01039169 147.05449098 -0.00777519 C152.98075839 -0.00621698 158.90701751 -0.00600621 164.83328438 -0.00931168 C170.40402616 -0.01220194 175.97474521 -0.0101934 181.54548454 -0.00441742 C183.58888588 -0.0030961 185.63228913 -0.00347329 187.6756897 -0.00568008 C190.46668022 -0.00841618 193.25759808 -0.00498036 196.04858398 0 C196.85540007 -0.00223072 197.66221616 -0.00446144 198.49348122 -0.00675976 C203.08468151 0.00910966 207.43078805 0.36957149 211.96080017 1.12698364 C211.37288871 4.68272873 210.43359134 7.54827567 208.80845642 10.75979614 C208.14523376 12.07959473 208.14523376 12.07959473 207.46861267 13.42605591 C206.99165955 14.35861206 206.51470642 15.29116821 206.02330017 16.25198364 C205.53474548 17.21741089 205.0461908 18.18283813 204.54283142 19.17752075 C194.78884398 38.38539711 194.78884398 38.38539711 189.96080017 47.12698364 C189.58399455 47.98006198 189.20718893 48.83314032 188.81896496 49.71206951 C186.96080017 52.12698364 186.96080017 52.12698364 183.93670368 52.74222279 C182.6858306 52.73761382 181.43495752 52.73300486 180.1461792 52.72825623 C179.44941202 52.73252835 178.75264485 52.73680047 178.03476351 52.74120206 C175.69411189 52.7494547 173.3552424 52.72191306 171.01475525 52.6946106 C169.33945763 52.6932006 167.66415691 52.69399116 165.98886108 52.69682312 C161.43519556 52.69826059 156.88218552 52.66881765 152.32867265 52.63395333 C147.57210483 52.6027447 142.81552281 52.59976344 138.05886841 52.59382629 C129.04900094 52.57827166 120.039436 52.53722133 111.02970189 52.48707885 C100.77352195 52.43123572 90.51732772 52.40371155 80.26103365 52.37860167 C59.16078683 52.32630686 38.06081254 52.23833315 16.96080017 52.12698364 C16.81307663 52.90479691 16.66535309 53.68261017 16.51315308 54.48399353 C15.96029436 57.12940395 15.15284655 59.3455421 14.08970642 61.82620239 C13.68913025 62.76745972 13.28855408 63.70871704 12.87583923 64.67849731 C12.42950134 65.7133728 11.98316345 66.74824829 11.52330017 67.81448364 C11.05247009 68.91574585 10.58164001 70.01700806 10.09654236 71.15164185 C9.01505835 73.67946626 7.93166119 76.20640219 6.84605408 78.73245239 C5.10458514 82.78745915 3.37383903 86.84698821 1.64450073 90.90718079 C0.06374064 94.61777982 -1.51960617 98.32727184 -3.10343933 102.03656006 C-3.88441565 103.86618124 -4.66476608 105.69606973 -5.44444275 107.52624512 C-10.1171223 118.4884375 -14.91156783 129.36939176 -20.03919983 140.12698364 C-22.69172906 136.69817226 -24.64690495 133.138597 -26.53919983 129.25198364 C-27.24582903 127.81688977 -27.9528845 126.38200574 -28.66029358 124.94729614 C-29.04040588 124.17418091 -29.42051819 123.40106567 -29.81214905 122.60452271 C-31.11368058 119.9765995 -32.43548586 117.3596409 -33.76185608 114.74417114 C-38.06784158 106.23921808 -42.33633432 97.73503649 -46.16419983 89.00198364 C-46.44722961 88.35745239 -46.7302594 87.71292114 -47.02186584 87.04885864 C-50.33617423 79.33252238 -50.33617423 79.33252238 -49.55422974 76.15829468 C-49.26833481 75.47023743 -48.98243988 74.78218018 -48.68788147 74.07327271 C-48.36790695 73.2882135 -48.04793243 72.5031543 -47.71826172 71.69430542 C-47.36139786 70.85224548 -47.004534 70.01018555 -46.63685608 69.14260864 C-46.27253983 68.25913757 -45.90822357 67.3756665 -45.53286743 66.46542358 C-44.38035824 63.68074374 -43.21134953 60.90344634 -42.03919983 58.12698364 C-41.32397681 56.41808987 -40.6089642 54.70910801 -39.8941803 53.00003052 C-38.12967125 48.79618644 -36.34732473 44.60017425 -34.55702209 40.40725708 C-33.47128255 37.86429558 -32.38877463 35.31997715 -31.30677795 32.77542114 C-27.92232346 24.82400691 -24.51725039 16.88140795 -21.07435608 8.95510864 C-20.63487892 7.93704132 -20.63487892 7.93704132 -20.18652344 6.89840698 C-18.15551063 2.24329444 -18.15551063 2.24329444 -17.03919983 1.12698364 C-11.32816426 0.22145492 -5.77334696 -0.01600667 0 0 Z " fill="#FDFDFD" transform="translate(169.03919982910156,110.87301635742188)"/>
</svg>
